<?xml version="1.0" encoding="UTF-8"?>
<svg width="256px" height="90px" viewBox="0 0 256 90" version="1.1" xmlns="http://www.w3.org/2000/svg" xmlns:xlink="http://www.w3.org/1999/xlink">
    <!-- Generator: Sketch 46.2 (44496) - http://www.bohemiancoding.com/sketch -->
    <title>Group 6</title>
    <desc>Created with Sketch.</desc>
    <defs>
        <linearGradient x1="79.9808298%" y1="8.9434365%" x2="35.179814%" y2="50.6083244%" id="linearGradient-1">
            <stop stop-color="#006A9A" offset="0%"></stop>
            <stop stop-color="#0198DC" offset="100%"></stop>
        </linearGradient>
        <linearGradient x1="2127%" y1="305.280913%" x2="1271%" y2="631.145792%" id="linearGradient-2">
            <stop stop-color="#006A9A" offset="0%"></stop>
            <stop stop-color="#0198DC" offset="100%"></stop>
        </linearGradient>
        <linearGradient x1="325.694667%" y1="4967%" x2="340.385027%" y2="5669%" id="linearGradient-3">
            <stop stop-color="#006A9A" offset="0%"></stop>
            <stop stop-color="#0198DC" offset="100%"></stop>
        </linearGradient>
        <linearGradient x1="75.4178061%" y1="36.5471515%" x2="43.7405044%" y2="82.048473%" id="linearGradient-4">
            <stop stop-color="#006A9A" offset="0%"></stop>
            <stop stop-color="#0198DC" offset="100%"></stop>
        </linearGradient>
        <linearGradient x1="5254%" y1="6596%" x2="9100%" y2="6596%" id="linearGradient-5">
            <stop stop-color="#006A9A" offset="0%"></stop>
            <stop stop-color="#0198DC" offset="100%"></stop>
        </linearGradient>
        <linearGradient x1="6608.59161%" y1="6230%" x2="7931.26581%" y2="7125%" id="linearGradient-6">
            <stop stop-color="#006A9A" offset="0%"></stop>
            <stop stop-color="#0198DC" offset="100%"></stop>
        </linearGradient>
        <linearGradient x1="328.090348%" y1="5377%" x2="455.33464%" y2="5864%" id="linearGradient-7">
            <stop stop-color="#006A9A" offset="0%"></stop>
            <stop stop-color="#0198DC" offset="100%"></stop>
        </linearGradient>
        <linearGradient x1="137%" y1="6655%" x2="1166%" y2="6655%" id="linearGradient-8">
            <stop stop-color="#006A9A" offset="0%"></stop>
            <stop stop-color="#0198DC" offset="100%"></stop>
        </linearGradient>
        <linearGradient x1="215%" y1="8488%" x2="2077%" y2="8488%" id="linearGradient-9">
            <stop stop-color="#006A9A" offset="0%"></stop>
            <stop stop-color="#0198DC" offset="100%"></stop>
        </linearGradient>
        <linearGradient x1="1015%" y1="9095%" x2="1015%" y2="9577%" id="linearGradient-10">
            <stop stop-color="#006A9A" offset="0%"></stop>
            <stop stop-color="#0198DC" offset="100%"></stop>
        </linearGradient>
        <linearGradient x1="2176%" y1="7642%" x2="5183%" y2="7642%" id="linearGradient-11">
            <stop stop-color="#006A9A" offset="0%"></stop>
            <stop stop-color="#0198DC" offset="100%"></stop>
        </linearGradient>
        <linearGradient x1="853.698783%" y1="1043%" x2="1419.82765%" y2="1720%" id="linearGradient-12">
            <stop stop-color="#006A9A" offset="0%"></stop>
            <stop stop-color="#0198DC" offset="100%"></stop>
        </linearGradient>
    </defs>
    <g id="INDQ" stroke="none" stroke-width="1" fill="none" fill-rule="evenodd">
        <g id="temporal" transform="translate(-256.000000, -2401.000000)">
            <g id="Group-6" transform="translate(256.000000, 2401.000000)">
                <rect id="Rectangle-path" fill="#006A9A" fill-rule="nonzero" x="95" y="24" width="3" height="42"></rect>
                <polygon id="Shape" fill="#006A9A" fill-rule="nonzero" points="143.47533 61.6106395 116.548119 24 114 24 114 66 116.52467 66 116.52467 28.3814375 143.451881 66 146 66 146 24 143.47533 24"></polygon>
                <path d="M178.806212,24.0023947 L162,24.0023947 L162,66 L178.85423,66 L179.526478,65.9525183 L179.526478,65.9525183 C184.911148,65.8571433 190.036313,63.6477428 193.771743,59.8115456 C197.820277,55.9310251 200.072552,50.5721627 199.998045,44.9972406 C200.075881,39.4139931 197.827072,34.0450442 193.779746,30.151281 C189.863098,26.1425109 184.442496,23.9165394 178.806212,24.0023947 Z M191.995087,57.9755847 C188.553719,61.5050057 183.787789,63.4674494 178.830221,63.3964175 L178.157972,63.4438993 L164.592958,63.4438993 L164.592958,26.5584954 L178.806212,26.5584954 C183.751863,26.5436435 188.498587,28.48305 191.991195,31.9455882 C195.483804,35.4081265 197.432858,40.1068499 197.405086,44.9972406 C197.481798,49.8746474 195.52525,54.5683187 191.995087,57.9755847 Z" id="Shape" fill="#006A9A" fill-rule="nonzero"></path>
                <path d="M250.071203,60.2490706 C253.784783,56.1848286 255.805724,50.8564355 255.721092,45.3526288 C255.721092,33.0076128 245.70996,23 233.360604,23 C221.011247,23 211.000116,33.0076128 211.000116,45.3526288 C210.980984,51.2930951 213.333189,56.9957712 217.535231,61.1963369 C221.737274,65.3969027 227.441955,67.7482808 233.38451,67.7291556 C238.875381,67.8104148 244.189526,65.7898117 248.238377,62.0812533 L254.159204,68 L256,66.1598513 L250.071203,60.2490706 Z M248.230408,58.4089219 L233.432323,43.6160382 L231.591527,45.4561869 L246.389612,60.2490706 C238.560051,67.1240226 226.733887,66.733443 219.375338,59.3568773 C215.593971,55.6872107 213.495012,50.6203508 213.574042,45.3526288 C213.790229,34.5855208 222.583556,25.9699458 233.356619,25.9699458 C244.129682,25.9699458 252.92301,34.5855208 253.139196,45.3526288 C253.206095,50.167388 251.453062,54.8300701 248.230408,58.4089219 L248.230408,58.4089219 Z" id="Shape" fill="#006A9A" fill-rule="nonzero"></path>
                <g id="cabeza">
                    <g id="Group-4">
                        <g id="cabeza" fill-rule="nonzero" fill="#FFFFFF">
                            <path d="M20.367492,89.3269565 C16.6410699,89.3269565 12.9611313,88.466087 8.41350184,86.5408696 L8.41350184,86.5408696 C5.51490029,85.7173687 3.51152208,83.0477858 3.50949939,80.006087 C3.56538738,78.5372865 3.73113426,77.0748572 4.0053227,75.6313043 C4.19737302,74.7788762 4.29353138,73.9072684 4.29197055,73.0330435 C2.02202945,70.3017391 1.96779877,69.9965217 2.23120491,68.4 L2.23120491,68.3530435 C2.18737099,67.8892703 2.21877285,67.4213788 2.32417178,66.9678261 C2.3538897,66.8927024 2.39293876,66.8216987 2.44038037,66.7565217 L2.33191902,66.6782609 C2.28543558,66.6782609 2.28543558,66.6782609 2.25444663,66.6156522 C2.22345767,66.5530435 2.0530184,66.3965217 1.96005153,66.3104348 C1.41605442,65.8750925 1.16877767,65.1622674 1.32477791,64.4791304 C1.65016196,62.913913 1.8748319,61.8417391 2.0530184,61.1452174 C1.95860666,61.135684 1.87335735,61.0840138 1.82060123,61.0043478 C0.817835411,59.4772953 0.279230142,57.6872493 0.271153374,55.8547826 C0.364742052,55.3232105 0.499440193,54.799868 0.674009816,54.2895652 C1.34027239,51.9417391 2.57983067,47.5747826 2.69603926,45.7513043 C2.70259261,45.6496729 2.70259261,45.5477184 2.69603926,45.446087 L2.69603926,45.3208696 C2.59106524,43.2885792 1.79786449,41.3544705 0.449339877,39.8426087 C0.393475968,39.7779614 0.365573918,39.6934034 0.371867485,39.6078261 C0.441592638,38.7 0.534559509,37.886087 0.650768098,37.1191304 C0.743734969,36.5243478 0.84444908,35.9295652 0.968404908,35.3504348 C1.81957034,31.2710838 3.45406457,27.3998369 5.77944049,23.9556522 C6.48348567,22.9054086 7.24654919,21.8967976 8.06487607,20.9347826 C9.52195465,19.2402217 11.1470259,17.7008841 12.9146479,16.3408696 C18.4875046,6.42772204 28.9074259,0.308249973 40.1926773,0.320869565 L41.0216319,0.320869565 C60.1650601,0.328695652 76.9610748,19.5652174 76.9610748,41.4782609 C76.961272,43.9965105 76.727834,46.5092369 76.2638233,48.9834783 C74.1039962,60.3921647 67.1204866,70.2794449 57.1436368,76.053913 C52.3224007,78.8598944 46.962791,80.5916776 41.4244883,81.1330435 C35.6645815,86.4195794 28.1574926,89.3418895 20.3752393,89.3269565 L20.367492,89.3269565 Z" id="Shape"></path>
                        </g>
                        <path d="M40.3115447,0.633913043 L41.1429509,0.633913043 C60.6771111,0.633913043 76.8856466,20.3165217 76.8856466,41.4626087 C76.9051942,55.6420595 69.3711506,68.7422981 57.1494624,75.78 C52.3199552,78.5751867 46.9521798,80.2963806 41.407136,80.8278261 C35.6776427,86.1039523 28.1909636,89.0224338 20.4277276,89.006087 C16.3229862,88.9024413 12.2815887,87.9626877 8.54716637,86.2434783 L8.62486789,86.2434783 C5.78905402,85.50601 3.80564555,82.9325007 3.79960396,79.9826087 C3.79960396,77.3452174 4.92627589,73.2365217 4.52222803,72.8217391 C2.26111401,70.0982609 2.33104537,69.8869565 2.53306931,68.4391304 C2.50234997,67.9732335 2.5469616,67.505404 2.66516188,67.053913 C2.66516188,67.053913 2.89049626,66.686087 2.89826642,66.6626087 C2.90603657,66.6391304 2.56414991,66.4043478 2.53306931,66.3965217 C2.03577963,65.8095652 1.55403025,65.7391304 1.67058252,64.5026087 C2.36989613,61.113913 2.60300067,60.1982609 2.89826642,59.9321739 C2.60219495,60.1916834 2.34098752,60.4889726 2.12125129,60.8165217 C1.15280005,59.3393692 0.634239929,57.6092732 0.629382251,55.8391304 L0.629382251,55.8391304 C0.629382251,55.5417391 2.89826642,48.2947826 3.06143959,45.7826087 C3.06984069,45.6288119 3.06984069,45.4746663 3.06143959,45.3208696 L3.06143959,45.3208696 C2.95725175,43.2154196 2.13374505,41.2109518 0.730394217,39.6469565 C0.792555427,38.8173913 0.885797242,37.9878261 1.01011966,37.1817391 L1.01011966,37.1817391 C1.09559133,36.5947826 1.20437344,36.0078261 1.32869586,35.4365217 C2.16709183,31.4129223 3.77712023,27.5928141 6.06848812,24.1904348 C6.7601028,23.1273222 7.51248633,22.1055991 8.32183199,21.1304348 C9.78931509,19.4381414 11.4272328,17.9038336 13.2092571,16.5521739 C18.726469,6.7059621 29.0862844,0.621226834 40.3115447,0.633913043 L40.3115447,0.633913043 Z M40.3115447,5.8247542e-15 C36.0747145,-0.00964277966 31.8789884,0.836607737 27.9725445,2.48869565 C21.541113,5.23109764 16.1783571,10.01948 12.7041973,16.1217391 C10.9350377,17.4862503 9.30792127,19.0280613 7.84785276,20.7234783 C7.01348933,21.6951037 6.23519383,22.7141715 5.51680739,23.7756522 C3.18914334,27.2386297 1.55289319,31.1247889 0.699313612,35.2173913 C0.574991192,35.82 0.466209075,36.4226087 0.380737411,36.993913 L0.380737411,36.993913 C0.264185142,37.7765217 0.170943327,38.5591304 0.101011966,39.4747826 C0.0874242206,39.6498052 0.146508342,39.822666 0.264185142,39.9521739 C1.56521011,41.4085161 2.33047707,43.270534 2.43205734,45.2269565 L2.43205734,45.36 C2.43744545,45.4460014 2.43744545,45.5322594 2.43205734,45.6182609 C2.33104537,47.4886957 1.03343012,52.0043478 0.419588167,54.1721739 C0.241070796,54.682614 0.100814697,55.2058205 -7.87698628e-14,55.7373913 C-7.87698628e-14,55.7373913 -7.87698628e-14,55.8 -7.87698628e-14,55.8078261 C-0.00727986268,57.6987147 0.53274922,59.5507509 1.55403025,61.1373913 C1.58827006,61.1903252 1.63017393,61.2378064 1.67835267,61.2782609 C1.50740934,61.9747826 1.29761526,62.9530435 1.01788981,64.3382609 L1.01788981,64.4008696 C0.850407856,65.1961675 1.14557976,66.0182841 1.77936464,66.5217391 C1.87740927,66.6134333 1.97077113,66.7100793 2.05909008,66.8113043 L2.05909008,66.8113043 L2.05909008,66.8113043 C1.92218991,67.2942927 1.86445024,67.7965432 1.88814675,68.2982609 L1.88814675,68.3452174 C1.61619146,70.0043478 1.73274373,70.4191304 3.97831744,73.1269565 C3.93446966,73.9340935 3.83319785,74.7370233 3.67528154,75.5295652 C3.3958297,76.991079 3.22699085,78.4718594 3.17022171,79.9591304 C3.17349917,83.1317688 5.26226086,85.9187428 8.29075138,86.7913043 L8.29075138,86.7913043 C12.8906809,88.7321739 16.6203535,89.6008696 20.4044172,89.6008696 C28.2532784,89.6178532 35.8279579,86.6944857 41.6557808,81.3991304 C47.2346385,80.8616098 52.6357074,79.1327782 57.4991192,76.3278261 C67.5737035,70.5025268 74.6225994,60.5390232 76.8001749,49.046087 C77.2701333,46.5512733 77.5068635,44.0175811 77.5072587,41.4782609 C77.5072587,19.3930435 60.5139379,1.52085511e-14 41.1429509,1.52085511e-14 L40.3115447,5.8247542e-15 Z" id="Shape" fill="#006A9A" fill-rule="nonzero"></path>
                        <path d="M40.9486971,49.7426087 C40.942632,49.7867462 40.942632,49.8315147 40.9486971,49.8756522 L40.9486971,49.8756522 L40.9486971,49.7504348 L40.9486971,49.7426087 Z" id="Shape" fill="#006A9A" fill-rule="nonzero"></path>
                        <path d="M40.9486971,49.7426087 C40.942632,49.7867462 40.942632,49.8315147 40.9486971,49.8756522 L40.9486971,49.8756522 L40.9486971,49.7504348 L40.9486971,49.7426087 Z" id="Shape" fill="#006A9A" fill-rule="nonzero"></path>
                        <path d="M40.9486971,49.7426087 C40.942632,49.7867462 40.942632,49.8315147 40.9486971,49.8756522 L40.9486971,49.8756522 L40.9486971,49.7504348 L40.9486971,49.7426087 Z" id="Shape" fill="#006A9A" fill-rule="nonzero"></path>
                        <path d="M68.9057013,44.4443478 C68.9080456,44.459911 68.9080456,44.4757412 68.9057013,44.4913043 C68.9057013,44.4913043 68.9057013,44.4913043 68.9057013,44.4913043 L68.9057013,44.4913043 L68.9057013,44.4443478 Z" id="Shape" fill="#006A9A" fill-rule="nonzero"></path>
                        <path d="M40.9486971,49.7426087 C40.942632,49.7867462 40.942632,49.8315147 40.9486971,49.8756522 L40.9486971,49.8756522 L40.9486971,49.7504348 L40.9486971,49.7426087 Z" id="Shape" fill="#006A9A" fill-rule="nonzero"></path>
                        <path d="M40.9486971,49.7426087 C40.942632,49.7867462 40.942632,49.8315147 40.9486971,49.8756522 L40.9486971,49.8756522 L40.9486971,49.7504348 L40.9486971,49.7426087 Z" id="Shape" fill="#006A9A" fill-rule="nonzero"></path>
                        <path d="M40.9486971,49.7426087 C40.942632,49.7867462 40.942632,49.8315147 40.9486971,49.8756522 L40.9486971,49.8756522 L40.9486971,49.7504348 L40.9486971,49.7426087 Z" id="Shape" fill="#006A9A" fill-rule="nonzero"></path>
                        <path d="M56.6444026,21.5686957 C56.8938908,23.0192864 57.0315743,24.487145 57.0562206,25.9591304 C57.0562206,25.833913 57.0562206,25.7008696 57.0562206,25.5756522 C57.0576767,24.2636745 56.9432637,22.9541665 56.714334,21.6626087 C56.6935921,21.629587 56.6672988,21.6004561 56.6366324,21.5765217 L56.6444026,21.5686957 Z" id="Shape" fill="#006A9A" fill-rule="nonzero"></path>
                        <path d="M41.8655749,58.6956522 C42.2018558,59.3647339 42.5862057,60.0081847 43.0155573,60.6208696 C43.7271991,61.6397726 44.5566638,62.5697861 45.4864654,63.3913043 C46.9071842,64.6571688 48.5484921,65.64692 50.3272696,66.3104348 C51.0854506,66.5943619 51.8649469,66.8168091 52.658315,66.9756522 C54.7097807,67.3915731 56.8229703,67.3915731 58.874436,66.9756522 C58.5491263,69.8402497 57.8218413,72.6438536 56.714334,75.3026087 C52.0113264,77.9963877 46.793724,79.6529644 41.407136,80.1626087 C41.2708988,80.1759363 41.1426891,80.2336339 41.0419389,80.3269565 C35.4297967,85.4969131 28.0953888,88.3568373 20.4898888,88.3408696 C17.9289592,88.3251066 15.3851712,87.918759 12.945072,87.1356522 C18.6400128,86.674281 24.1031438,84.6615822 28.7495596,81.3130435 C29.075906,81.0782609 29.4100225,80.8356522 29.7208285,80.5930435 C32.1125486,78.7403115 34.2292736,76.5530072 36.0068809,74.0973913 C36.6057304,73.2783132 37.1632957,72.4294146 37.6774634,71.553913 L37.6774634,71.553913 L37.6774634,71.553913 C39.1424044,69.0647445 40.2663156,66.3874281 41.0186284,63.5947826 C41.4269628,61.9863981 41.7101368,60.3483884 41.8655749,58.6956522 L41.8655749,58.6956522 Z M41.4149062,55.8 C41.3265918,61.2326828 39.829215,66.5476516 37.0713916,71.2173913 C37.0713916,71.2173913 37.0713916,71.2173913 37.0713916,71.2173913 C36.566945,72.0742954 36.0197438,72.904924 35.4318897,73.706087 C33.6888875,76.1113341 31.6140697,78.2537932 29.2701598,80.0686957 C28.9593537,80.3086957 28.6433676,80.5434783 28.3222013,80.7730435 C23.0512482,84.5644262 16.7336888,86.5978616 10.2565996,86.5878261 C9.6272174,86.5878261 9.18431878,86.2434783 8.57047683,86.2043478 C12.3001789,87.9212969 16.3360425,88.8609928 20.4354978,88.9669565 C28.1987337,88.9833034 35.6854128,86.0648219 41.4149062,80.7886957 C46.95995,80.2572501 52.3277253,78.5360562 57.1572326,75.7408696 C58.4545704,72.6909508 59.2598617,69.4518809 59.542669,66.146087 C57.324562,66.7248339 55.0046132,66.7863951 52.759327,66.326087 C52.0069253,66.1896705 51.2664423,65.9934038 50.5448339,65.7391304 C48.832212,65.1035099 47.2514601,64.1535381 45.8827431,62.9373913 C44.9896827,62.1435462 44.1940699,61.2449941 43.512847,60.2608696 C42.5626991,58.904068 41.8456344,57.3961223 41.3915957,55.8 L41.4149062,55.8 Z" id="Shape" fill="#006A9A" fill-rule="nonzero"></path>
                        <path d="M40.9486971,49.7426087 C40.942632,49.7867462 40.942632,49.8315147 40.9486971,49.8756522 L40.9486971,49.8756522 L40.9486971,49.7504348 L40.9486971,49.7426087 Z" id="Shape" fill="#006A9A" fill-rule="nonzero"></path>
                        <path d="M56.1781935,19.3069565 C56.3646772,20.0895652 56.5200802,20.8017391 56.6444026,21.5686957 C56.8938908,23.0192864 57.0315743,24.487145 57.0562206,25.9591304 C57.0562206,25.833913 57.0562206,25.7008696 57.0562206,25.5756522 C57.0576767,24.2636745 56.9432637,22.9541665 56.714334,21.6626087 C56.5762387,20.8704793 56.3946567,20.0866684 56.1704234,19.3147826 L56.1781935,19.3069565 Z" id="Shape" fill="#006A9A" fill-rule="nonzero"></path>
                        <path d="M56.1781935,19.3069565 C56.3646772,20.0895652 56.5200802,20.8017391 56.6444026,21.5686957 C56.8938908,23.0192864 57.0315743,24.487145 57.0562206,25.9591304 C57.0562206,25.833913 57.0562206,25.7008696 57.0562206,25.5756522 C57.0576767,24.2636745 56.9432637,22.9541665 56.714334,21.6626087 C56.5762387,20.8704793 56.3946567,20.0866684 56.1704234,19.3147826 L56.1781935,19.3069565 Z" id="Shape" fill="#006A9A" fill-rule="nonzero"></path>
                        <path d="M48.9519529,15.566087 C51.6364075,17.2725324 54.0447371,19.3841029 56.0927219,21.8269565 C56.318262,23.1958015 56.4429248,24.5795798 56.4656891,25.9669565 C56.4656891,26.1234783 56.4656891,26.28 56.4656891,26.4365217 C56.4650936,29.697928 55.8997627,32.9342418 54.7951066,36 L54.0802527,36 C53.4817542,36.0631573 52.8875626,36.1624665 52.3008881,36.2973913 C53.4844868,29.2040714 52.3071106,21.9156219 48.9519529,15.566087 L48.9519529,15.566087 Z M47.1881285,13.7973913 C51.5750665,20.7424712 53.1310467,29.125069 51.5316431,37.1973913 C52.3967171,36.9382874 53.2836849,36.7601408 54.1812647,36.6652174 C54.5386916,36.6652174 54.9116589,36.5947826 55.2846261,36.5869565 C56.4906638,33.3516867 57.1066226,29.9236184 57.1028415,26.4678261 C57.1028415,26.3034783 57.1028415,26.1391304 57.1028415,25.9747826 C57.0781952,24.5027972 56.9405117,23.0349386 56.6910235,21.5843478 C54.0542153,18.4003572 50.8297203,15.7612627 47.1958987,13.8130435 L47.1881285,13.7973913 Z" id="Shape" fill="#006A9A" fill-rule="nonzero"></path>
                        <path d="M36.2399854,3.91304348 C45.2507178,4.49055783 52.9516954,10.657595 55.5410411,19.3695652 C53.1822702,16.9082558 50.4524093,14.8375374 47.4523137,13.233913 C43.7360457,11.2376612 39.6636562,10.0034254 35.4707404,9.6026087 C34.4373103,9.50086957 33.3727996,9.44608696 32.316059,9.44608696 C28.3075244,9.43636713 24.3328342,10.1849954 20.598671,11.6530435 C24.5767555,7.07242241 30.2090832,4.28530267 36.2399854,3.91304348 L36.2399854,3.91304348 Z M36.2399854,3.27913043 L36.2399854,3.27913043 C31.920823,3.52804486 27.7581852,4.99518498 24.2273316,7.51304348 C22.0217148,9.07763383 20.1024885,11.0159722 18.5551212,13.2417391 C22.8459481,11.1654973 27.5480031,10.0952365 32.3082889,10.1113043 C33.3443091,10.1113043 34.3803292,10.1634783 35.4163494,10.2678261 C39.5271204,10.6639171 43.5197076,11.8740393 47.1648181,13.8286957 C50.7903477,15.769343 54.0092527,18.3975516 56.6444026,21.5686957 C56.5200802,20.786087 56.356907,20.0504348 56.1781935,19.3069565 C56.1750537,19.2914641 56.1750537,19.2754924 56.1781935,19.26 C53.5335843,10.242119 45.5664241,3.85692084 36.2477556,3.28695652 L36.2399854,3.27913043 Z" id="Shape" fill="#006A9A" fill-rule="nonzero"></path>
                        <path d="M55.7275248,37.2052174 L55.7663755,37.2052174 C56.6766381,37.2070466 57.5846611,37.2961441 58.4781583,37.4713043 C60.265931,37.8129667 61.9707194,38.5013857 63.497676,39.4982609 C65.5083311,40.8024103 67.1641651,42.591211 68.3151698,44.7026087 L68.3617907,44.7965217 L68.3617907,44.7965217 C70.983212,49.725903 70.5395293,55.7372062 67.2232657,60.222006 C63.907002,64.7068058 58.3158329,66.8568263 52.8758792,65.7391304 C52.1565117,65.5920792 51.4498155,65.3879648 50.7623981,65.1286957 C49.1289791,64.5181132 47.6220323,63.6079669 46.3178716,62.4443478 C45.4637558,61.6875912 44.7021039,60.8311324 44.0489874,59.8930435 C43.1463118,58.6048217 42.4635121,57.1738454 42.0287481,55.6591304 L42.0287481,55.5965217 C41.9510466,55.346087 41.8888854,55.08 41.8422645,54.8686957 C41.6523189,54.0512815 41.5353009,53.2184018 41.4926077,52.38 C41.4926077,52.1217391 41.4926077,51.8713043 41.4926077,51.5973913 C41.4930521,51.1085315 41.5189884,50.6200326 41.5703092,50.133913 C41.6277221,50.0149343 41.6467407,49.8808457 41.6247002,49.7504348 L41.6247002,49.7504348 C41.6972656,49.1733064 41.8036432,48.6010037 41.9432764,48.0365217 C42.0442884,47.6765217 42.1297601,47.3791304 42.230772,47.0895652 C42.331784,46.8 42.3861751,46.6278261 42.4716467,46.4243478 C43.3352589,44.1302491 44.762931,42.0945002 46.6209075,40.5078261 C47.1148454,40.0995969 47.6338886,39.7231955 48.1749377,39.3808696 C49.9943268,38.2356801 52.0479933,37.5212218 54.1812647,37.2913043 C54.4843006,37.2913043 54.8494977,37.2208696 55.2613157,37.2130435 L55.7042143,37.2130435 L55.7275248,37.2052174 Z M44.3831039,44.1782609 L44.336483,44.2408696 C44.0690202,44.6529458 43.8276651,45.0816253 43.613859,45.5243478 L43.613859,45.5869565 C43.0282871,46.7824895 42.6223945,48.059046 42.4094855,49.3747826 C42.3111724,49.9569209 42.2540475,50.5453588 42.2385422,51.1356522 C42.2365563,51.164313 42.2365563,51.1930783 42.2385422,51.2217391 L42.2385422,51.2217391 C42.2385422,51.2217391 42.2385422,51.2686957 42.2385422,51.2921739 C42.2385422,51.3156522 42.2385422,51.4956522 42.2385422,51.5895652 C42.2367448,52.1970008 42.2782926,52.8037812 42.3628646,53.4052174 C42.5055846,54.5368364 42.7955709,55.6446117 43.2253514,56.7 L43.2253514,56.7469565 C44.2201747,59.2145067 45.9146639,61.3322147 48.0972362,62.8356522 C50.031559,64.1797494 52.2820915,64.9892971 54.6241633,65.1834783 C55.00884,65.2224478 55.395306,65.2407347 55.7819158,65.2382609 C63.2357336,65.2297303 69.2833323,59.1595761 69.3175193,51.6521739 C69.3205158,49.9479884 69.0014422,48.258801 68.377331,46.6747826 L68.377331,46.6278261 C66.5980597,42.0512033 62.5094632,38.794461 57.6778327,38.1052174 C57.0475553,38.0113365 56.4112781,37.9642531 55.7741457,37.9643478 C55.2859339,37.9631961 54.7981043,37.9919448 54.3133572,38.0504348 C53.695142,38.1121167 53.0822477,38.2193606 52.4796015,38.3713043 C51.8789109,38.5224738 51.2895163,38.7159944 50.7157772,38.9504348 C50.1948022,39.1578953 49.6885562,39.4010738 49.2005977,39.6782609 C47.2666676,40.7620238 45.6238669,42.3038352 44.4141845,44.1704348 L44.3831039,44.1782609 Z M55.7741457,36.5634783 C55.5954322,36.5634783 55.4244889,36.5634783 55.2457754,36.5634783 C54.8728081,36.5634783 54.4687603,36.5634783 54.1424139,36.6417391 C51.9125709,36.8816851 49.7658852,37.6282653 47.8641317,38.8252174 C47.2987135,39.1815464 46.7563041,39.5736379 46.2401701,39.9991304 C44.2730953,41.6455482 42.7565307,43.7710919 41.8344943,46.173913 C41.7412525,46.4008696 41.6557808,46.6356522 41.5780793,46.8782609 C41.5003778,47.1208696 41.3760554,47.52 41.2905837,47.8486957 C41.1351067,48.4720764 41.0183284,49.1046052 40.9409269,49.7426087 L40.9409269,49.7426087 L40.9409269,49.8678261 L40.9409269,49.8678261 C40.8651508,50.4595768 40.8262239,51.0555246 40.8243747,51.6521739 C40.8243747,51.9182609 40.8243747,52.1843478 40.8243747,52.4347826 C40.867065,53.3046413 40.9866809,54.1689334 41.1818016,55.0173913 C41.2361927,55.2756522 41.2983539,55.5417391 41.3838255,55.8 L41.3838255,55.8 C41.8402569,57.3966294 42.559962,58.9046043 43.512847,60.2608696 C44.1950527,61.2395044 44.9906286,62.1327603 45.8827431,62.9217391 C47.2514601,64.1378859 48.832212,65.0878577 50.5448339,65.7234783 C51.2625844,65.9932954 52.0004791,66.2052662 52.7515568,66.3573913 C58.4466127,67.5447932 64.3084976,65.2978473 67.778745,60.5972511 C71.2489925,55.8966548 71.6976946,49.595645 68.9290117,44.4443478 C68.931356,44.4287847 68.931356,44.4129544 68.9290117,44.3973913 L68.9290117,44.3973913 C67.7264872,42.1723738 65.9868382,40.2883175 63.8706433,38.9191304 C62.2736927,37.8813272 60.4928145,37.1638478 58.6257912,36.806087 C57.6937988,36.6244529 56.7467351,36.5327335 55.7974561,36.5321739 L55.7741457,36.5634783 Z M55.7741457,64.6356522 C55.4108315,64.6367949 55.0477134,64.6185083 54.6863245,64.5808696 C52.4556744,64.3947897 50.3124129,63.6230579 48.4702035,62.3426087 C46.3847662,60.9089293 44.7635809,58.8896309 43.8081127,56.5356522 L43.8081127,56.5356522 C43.3893831,55.5188076 43.1071698,54.4502573 42.9689364,53.3582609 C42.8873212,52.7932606 42.8457752,52.2231216 42.844614,51.6521739 C42.844614,51.566087 42.844614,51.4643478 42.844614,51.3782609 C42.8415494,51.3470326 42.8415494,51.3155761 42.844614,51.2843478 L42.844614,51.2843478 C42.844614,51.2843478 42.844614,51.2843478 42.844614,51.2843478 L42.844614,51.2843478 C42.857077,50.7045909 42.9116134,50.1265279 43.0077872,49.5547826 C43.2113308,48.3013828 43.5989016,47.0854614 44.1577695,45.9469565 L44.1577695,45.9469565 C44.3703471,45.4844615 44.6143928,45.0373101 44.8881638,44.6086957 L44.8881638,44.6086957 C46.0431052,42.7995284 47.6230219,41.3050059 49.4880933,40.2573913 C49.9508178,39.9922726 50.4311123,39.7595486 50.9255713,39.5608696 C51.4738932,39.3358189 52.0373418,39.1501376 52.6116941,39.0052174 C53.1959726,38.8534013 53.7907778,38.7461412 54.3910587,38.6843478 C54.8576577,38.6265883 55.3273465,38.5978382 55.7974561,38.5982609 C56.4033635,38.5977492 57.0084844,38.6422175 57.6079014,38.7313043 C62.2048965,39.3972719 66.0921449,42.4995701 67.7867995,46.8547826 L67.7867995,46.8547826 C68.3890657,48.3811475 68.6950401,50.0097041 68.688137,51.6521739 C68.6710008,58.8278117 62.8907472,64.6356729 55.7663755,64.6356522 L55.7741457,64.6356522 Z" id="Shape" fill="#006A9A" fill-rule="nonzero"></path>
                        <path d="M40.9486971,49.7426087 C40.942632,49.7867462 40.942632,49.8315147 40.9486971,49.8756522 L40.9486971,49.8756522 L40.9486971,49.7504348 L40.9486971,49.7426087 Z" id="Shape" fill="#006A9A" fill-rule="nonzero"></path>
                        <path d="M55.7663755,39.2321739 C56.3464245,39.2334067 56.9255876,39.277876 57.4991192,39.3652174 C61.8629995,39.9870796 65.5610743,42.9172538 67.1884978,47.0426087 L67.1884978,47.0973913 C67.7660139,48.5453608 68.0614721,50.0917406 68.0587548,51.6521739 C68.0458936,58.4795028 62.5449179,64.0060698 55.7663755,64.0017391 C55.4187248,64.0048522 55.0711585,63.9891775 54.7251752,63.9547826 C52.6004966,63.7798495 50.5587303,63.0457834 48.80432,61.826087 C46.8388618,60.4715218 45.310039,58.5671402 44.4064144,56.3478261 L44.4064144,56.2930435 C44.014421,55.3229121 43.7530964,54.3043055 43.6293993,53.2643478 C43.5528868,52.7303933 43.513939,52.1916598 43.512847,51.6521739 C43.512847,51.6521739 43.512847,51.6052174 43.512847,51.573913 C43.5505293,51.4515716 43.5505293,51.3206023 43.512847,51.1982609 L43.512847,51.1982609 C43.5282359,50.673503 43.5801645,50.1504794 43.66825,49.6330435 C43.8572079,48.4682742 44.2131723,47.3373327 44.7249906,46.2756522 L44.7716115,46.1973913 C44.9568314,45.8007863 45.1670548,45.4165231 45.4009937,45.0469565 L45.4476147,44.9765217 C46.5469568,43.2583518 48.0493652,41.8392004 49.8222098,40.8443478 C50.2625965,40.593977 50.7195181,40.3743309 51.1897564,40.1869565 C51.7104253,39.9745481 52.2452986,39.7993321 52.7904076,39.6626087 C53.3369071,39.525285 53.8926677,39.4285038 54.4532199,39.3730435 C54.8941174,39.3196657 55.3378464,39.2935298 55.7819158,39.2947826 L55.7663755,39.2321739 Z M49.7988994,48.686087 C48.47663,51.3772186 49.086564,54.6252207 51.2933089,56.6440721 C53.5000538,58.6629236 56.7684611,58.9630411 59.3012892,57.3793952 C61.8341174,55.7957492 63.0171407,52.7123833 62.1998348,49.8247877 C61.3825289,46.9371922 58.7630952,44.945626 55.7819158,44.9452174 C53.2645899,44.9451982 50.9608607,46.3700581 49.8222098,48.6313043 L49.8222098,48.686087 L49.7988994,48.686087 Z M55.8052263,38.6452174 C55.3351167,38.6447947 54.8654278,38.6735448 54.3988289,38.7313043 C53.8120061,38.7898774 53.2302619,38.8918923 52.658315,39.0365217 C52.0839627,39.1814419 51.5205141,39.3671232 50.9721922,39.5921739 C50.4777332,39.790853 49.9974387,40.0235769 49.5347142,40.2886957 C47.6590828,41.3223125 46.0657111,42.8061866 44.8959339,44.6086957 L44.8959339,44.6086957 C44.6296378,45.0200718 44.3908252,45.4488457 44.18108,45.8921739 L44.18108,45.8921739 C43.6222121,47.0306788 43.2346412,48.2466002 43.0310976,49.5 C42.9349239,50.0717453 42.8803874,50.6498083 42.8679244,51.2295652 L42.8679244,51.2295652 C42.8707481,51.2555747 42.8707481,51.2818166 42.8679244,51.3078261 L42.8679244,51.3078261 C42.8679244,51.393913 42.8679244,51.4956522 42.8679244,51.5817391 C42.8650225,52.162946 42.9039754,52.7435995 42.9844767,53.3191304 C43.1227101,54.4111269 43.4049234,55.4796772 43.823653,56.4965217 L43.823653,56.4965217 C44.7791212,58.8505005 46.4003065,60.8697989 48.4857438,62.3034783 C50.3279532,63.5839274 52.4712147,64.3556593 54.7018648,64.5417391 C55.0632537,64.5793779 55.4263718,64.5976645 55.789686,64.5965217 C62.8898621,64.5837257 68.6497229,58.8033695 68.688137,51.6521739 C68.6900894,50.0228599 68.3842032,48.408053 67.7867995,46.893913 L67.7867995,46.893913 C67.2783309,45.5859388 66.56188,44.3700418 65.6655482,43.293913 C63.6198545,40.831598 60.7408915,39.2200406 57.5845909,38.7704348 C56.985174,38.6813479 56.3800531,38.6368797 55.7741457,38.6373913 L55.8052263,38.6452174 Z M55.8052263,57.7408696 C53.7071165,57.7443884 51.7576363,56.6505401 50.6563415,54.8518436 C49.5550467,53.0531471 49.4598724,50.8075509 50.4049711,48.9208696 L50.4049711,48.9208696 C51.7410959,46.2396816 54.8171242,44.9382771 57.6534334,45.8541939 C60.4897425,46.7701107 62.241005,49.6303709 61.7801702,52.5942124 C61.3193355,55.5580539 58.7837499,57.7421397 55.8052263,57.7408696 L55.8052263,57.7408696 Z" id="Shape" fill="#006A9A" fill-rule="nonzero"></path>
                        <path d="M55.7663755,46.173913 C58.2395252,46.1352502 60.4271555,47.7821572 61.0905886,50.1821239 C61.7540218,52.5820906 60.7261784,55.1307083 58.589043,56.3849014 C56.4519076,57.6390945 53.7436973,57.2830064 51.9978522,55.5182609 C50.312666,53.8564668 49.882777,51.2901688 50.9333414,49.1634783 L50.9333414,49.1165217 C51.8729299,47.3041199 53.736395,46.169543 55.7663755,46.173913 L55.7663755,46.173913 Z M55.7663755,45.54 C53.4865695,45.538318 51.3992029,46.8269791 50.3661204,48.873913 L50.3661204,48.873913 C49.1460003,51.3048406 49.6773675,54.2562277 51.667261,56.1008743 C53.6571546,57.9455209 56.6213756,58.2345708 58.9256481,56.8086608 C61.2299206,55.3827508 62.313548,52.5888465 61.5790897,49.9673223 C60.8446314,47.3457981 58.4708024,45.5345473 55.7663755,45.5321739 L55.7663755,45.54 Z" id="Shape" fill="#006A9A" fill-rule="nonzero"></path>
                        <path d="M13.9396513,16.7791304 C10.1788981,23.1808696 8.88128288,32.0086957 8.54716637,34.9826087 L7.77015125,34.9826087 C5.7310032,34.9786157 3.70929808,35.360912 1.81044524,36.1095652 C1.84670595,35.9217391 1.8855567,35.7313043 1.92699751,35.5382609 C2.75366156,31.5944502 4.33735512,27.8512957 6.58908826,24.5191304 C7.27364042,23.4989648 8.01560835,22.5191013 8.81135152,21.5843478 C10.2457782,19.9222682 11.847196,18.4142293 13.5899945,17.0843478 L13.9551916,16.8104348 L13.9396513,16.7791304 Z M16.3483982,14.4626087 C16.0065116,14.666087 15.6646249,14.8617391 15.3305084,15.0730435 C14.5949341,15.5373913 13.8878503,16.0330435 13.2092571,16.56 C11.4276915,17.9092867 9.78979625,19.4409507 8.32183199,21.1304348 C7.50935836,22.0824034 6.75181727,23.0805674 6.05294782,24.12 C3.76122812,27.5221863 2.1511693,31.3423667 1.31315556,35.366087 C1.19660329,35.9373913 1.08782117,36.5243478 0.99457936,37.1113043 C1.2587645,36.986087 1.5307198,36.8686957 1.77159448,36.7591304 C3.67634659,35.9805544 5.7145644,35.5869951 7.77015125,35.6008696 C8.21304987,35.6008696 8.64817834,35.6008696 9.08330681,35.6556522 C9.3241815,33.4173913 10.8005102,21.0834783 16.3173176,14.4547826 L16.3483982,14.4626087 Z" id="Shape" fill="#006A9A" fill-rule="nonzero"></path>
                        <path d="M32.518083,10.7217391 C33.4660414,10.7217391 34.4139999,10.7765217 35.3386479,10.8704348 C39.3124796,11.2507055 43.1741594,12.4098394 46.7063792,14.2826087 C50.8672148,20.9513112 52.3793186,28.9546889 50.9411116,36.6965217 C49.8848593,37.041504 48.868814,37.5007038 47.9107526,38.066087 C46.2969004,36.7977884 44.5636628,35.6916448 42.7358319,34.7634783 L42.6814408,34.7634783 C42.3240138,34.5913043 41.9665869,34.4113043 41.6091599,34.2547826 C38.4144249,32.797127 35.0003779,31.8872142 31.5079633,31.5626087 C30.5366944,31.4686957 29.542115,31.4295652 28.5553058,31.4295652 C24.4266271,31.4082415 20.3341914,32.2060278 16.5115714,33.7773913 C22.3081042,19.0408696 31.2748588,11.7234783 32.5957845,10.7217391 L32.518083,10.7217391 Z M32.3859904,10.0878261 C32.3859904,10.0878261 21.6321011,17.7495652 15.307198,34.9747826 L15.7656369,34.7634783 C19.765542,32.9556747 24.1012225,32.0246757 28.4853745,32.0321739 C29.4644135,32.0321739 30.4279123,32.0791304 31.3836409,32.1652174 C34.8170614,32.4828115 38.1735036,33.3768995 41.3138942,34.8104348 C41.6713211,34.9669565 42.020978,35.1391304 42.3706348,35.3113043 L42.3706348,35.3113043 C44.3210484,36.2880021 46.1626055,37.4712003 47.8641317,38.8408696 C48.9937346,38.1272334 50.2144828,37.5717042 51.4927923,37.1895652 C53.0921959,29.1172429 51.5362158,20.7346452 47.1492778,13.7895652 C43.5041673,11.8349089 39.5115801,10.6247867 35.4008091,10.2286957 C34.3647889,10.1243478 33.3287688,10.0721739 32.2927486,10.0721739 L32.3859904,10.0878261 Z" id="Shape" fill="#006A9A" fill-rule="nonzero"></path>
                        <path d="M32.9687517,9.61043478 C33.1241548,9.61043478 17.9568195,20.5669565 11.8106299,46.2756522 C12.2146778,36.8843478 18.6639033,17.9295652 28.9049626,10.08 C30.2490107,9.84172347 31.6060474,9.68491975 32.9687517,9.61043478 Z" id="Shape" fill="url(#linearGradient-1)" fill-rule="nonzero"></path>
                        <path d="M19.3399065,12.873913 C19.3399065,12.873913 10.1011966,21.3652174 8.00325579,44.4443478 L7.60697807,45.1643478 C7.60697807,45.1643478 8.98229484,23.4 16.3173176,14.4313043 L19.3399065,12.873913 Z" id="Shape" fill="url(#linearGradient-2)" fill-rule="nonzero"></path>
                        <path d="M34.7170358,41.3452174 C30.6393694,43.6837199 25.817329,44.3294154 21.2746741,43.1452174 L21.1348114,43.1452174 L20.6142113,42.7147826 C19.8309013,42.0570969 19.0959886,41.3430494 18.4152585,40.5782609 L18.749375,40.4217391 L19.0135601,40.3121739 C24.1319704,38.2203984 29.9203253,38.6098359 34.7170358,41.3686957 L34.7170358,41.3452174 Z" id="Shape" fill="url(#linearGradient-3)" fill-rule="nonzero"></path>
                        <path d="M59.5348989,66.1852174 C59.2520916,69.4910113 58.4468002,72.7300813 57.1494624,75.78 C52.3199552,78.5751867 46.9521798,80.2963806 41.407136,80.8278261 C32.4482651,89.0470893 19.5712818,91.2906092 8.39176335,86.58 C9.00301525,86.6165217 9.6220373,86.6347826 10.2488295,86.6347826 C16.7259187,86.6448181 23.043478,84.6113827 28.3144311,80.82 C28.6355974,80.5904348 28.9515836,80.3556522 29.2623896,80.1156522 C31.6062996,78.3007497 33.6811174,76.1582907 35.4241195,73.7530435 C36.0119627,72.9518728 36.5591636,72.1212448 37.0636215,71.2643478 C37.0636215,71.2643478 37.0636215,71.2643478 37.0636215,71.2643478 C39.8319945,66.5816135 41.3323537,61.2493776 41.4149062,55.8 C41.8617635,57.3946057 42.5709075,58.9024647 43.512847,60.2608696 C44.1950527,61.2395044 44.9906286,62.1327603 45.8827431,62.9217391 C47.2514601,64.1378859 48.832212,65.0878577 50.5448339,65.7234783 C51.2625844,65.9932954 52.0004791,66.2052662 52.7515568,66.3573913 C54.996843,66.8176994 57.3167919,66.7561382 59.5348989,66.1773913 L59.5348989,66.1852174 Z" id="Shape" fill="url(#linearGradient-4)" fill-rule="nonzero"></path>
                        <path d="M68.9290117,44.4913043 C68.931356,44.4757412 68.931356,44.459911 68.9290117,44.4443478 L68.9290117,44.4443478 C67.726214,42.2195284 65.9866223,40.3355342 63.8706433,38.966087 C62.2736927,37.9282837 60.4928145,37.2108044 58.6257912,36.8530435 C57.6937988,36.6714094 56.7467351,36.5796901 55.7974561,36.5791304 C55.6187426,36.5791304 55.4477993,36.5791304 55.2690858,36.5791304 C54.8961186,36.5791304 54.4920707,36.5791304 54.1657244,36.6573913 C51.9358813,36.8973373 49.7891957,37.6439175 47.8874421,38.8408696 C47.322024,39.1971986 46.7796146,39.5892901 46.2634805,40.0147826 C44.2900201,41.6540038 42.7654177,43.7741786 41.8344943,46.173913 C41.7412525,46.4008696 41.6557808,46.6356522 41.5780793,46.8782609 C41.5003778,47.1208696 41.3760554,47.52 41.2905837,47.8486957 C41.1351067,48.4720764 41.0183284,49.1046052 40.9409269,49.7426087 L40.9409269,49.7426087 L40.9409269,49.8678261 L40.9409269,49.8678261 C40.8651508,50.4595768 40.8262239,51.0555246 40.8243747,51.6521739 C40.8243747,51.9182609 40.8243747,52.1843478 40.8243747,52.4347826 C40.867065,53.3046413 40.9866809,54.1689334 41.1818016,55.0173913 C41.2361927,55.2756522 41.2983539,55.5417391 41.3838255,55.8 L41.3838255,55.8 C41.8402569,57.3966294 42.559962,58.9046043 43.512847,60.2608696 C44.1950527,61.2395044 44.9906286,62.1327603 45.8827431,62.9217391 C47.2514601,64.1378859 48.832212,65.0878577 50.5448339,65.7234783 C51.2625844,65.9932954 52.0004791,66.2052662 52.7515568,66.3573913 C58.4466127,67.5447932 64.3084976,65.2978473 67.778745,60.5972511 C71.2489925,55.8966548 71.6976946,49.595645 68.9290117,44.4443478 L68.9290117,44.4913043 Z M59.643681,64.0565217 C58.3864187,64.4534794 57.076191,64.6540677 55.7586054,64.6513043 C55.3952912,64.6524471 55.0321731,64.6341605 54.6707842,64.5965217 C52.4401341,64.4104419 50.2968726,63.6387101 48.4546632,62.3582609 C46.3692259,60.9245815 44.7480406,58.9052831 43.7925724,56.5513043 L43.7925724,56.5513043 C43.3738428,55.5344598 43.0916295,54.4659095 42.9533961,53.373913 C42.8762401,52.8033649 42.8398858,52.2279704 42.844614,51.6521739 C42.844614,51.566087 42.844614,51.4643478 42.844614,51.3782609 C42.8415494,51.3470326 42.8415494,51.3155761 42.844614,51.2843478 L42.844614,51.2843478 C42.844614,51.2843478 42.844614,51.2843478 42.844614,51.2843478 L42.844614,51.2843478 C42.857077,50.7045909 42.9116134,50.1265279 43.0077872,49.5547826 C43.2113308,48.3013828 43.5989016,47.0854614 44.1577695,45.9469565 L44.1577695,45.9469565 C44.3703471,45.4844615 44.6143928,45.0373101 44.8881638,44.6086957 L44.8881638,44.6086957 C46.0431052,42.7995284 47.6230219,41.3050059 49.4880933,40.2573913 C49.9508178,39.9922726 50.4311123,39.7595486 50.9255713,39.5608696 C51.4738932,39.3358189 52.0373418,39.1501376 52.6116941,39.0052174 C53.1959726,38.8534013 53.7907778,38.7461412 54.3910587,38.6843478 C54.8576577,38.6265883 55.3273465,38.5978382 55.7974561,38.5982609 C56.4033635,38.5977492 57.0084844,38.6422175 57.6079014,38.7313043 C62.2048965,39.3972719 66.0921449,42.4995701 67.7867995,46.8547826 L67.7867995,46.8547826 C68.3890657,48.3811475 68.6950401,50.0097041 68.688137,51.6521739 C68.6742435,57.3250992 65.0157975,62.3362767 59.643681,64.0408696 L59.643681,64.0565217 Z" id="Shape" fill="url(#linearGradient-5)" fill-rule="nonzero"></path>
                        <path d="M61.803783,51.6521739 C61.7954981,54.161549 60.2576379,56.4080821 57.9319752,57.3081784 C55.6063125,58.2082747 52.9705447,57.577052 51.2960103,55.7189749 C49.621476,53.8608977 49.2521289,51.1576202 50.3661204,48.9130435 L50.3661204,48.9130435 C51.6294835,46.4016512 54.4375848,45.0901437 57.1570053,45.7413998 C59.8764259,46.3926559 61.7979166,48.8368223 61.803783,51.6521739 L61.803783,51.6521739 Z" id="Shape" fill="url(#linearGradient-6)" fill-rule="nonzero"></path>
                        <path d="M7.86339306,42.2608696 C7.70799004,41.94 5.15161028,41.4782609 3.25569337,42.6678261 L2.72732309,43.2547826 L3.05366944,45.266087 C4.13058525,45.6677952 5.30690641,45.7116763 6.41037478,45.3913043 C6.80226752,45.2691727 7.15225073,45.0386902 7.42049444,44.726087 L7.71576019,44.3817391 L7.86339306,42.2608696 Z" id="Shape" fill="url(#linearGradient-7)" fill-rule="nonzero"></path>
                        <path d="M8.0809573,43.7243478 C7.62251837,48.42 6.94651522,51.3 2.64185142,54.5086957 C2.51778838,54.5963927 2.44020691,54.7362892 2.43112915,54.8886743 C2.4220514,55.0410595 2.48246848,55.1892955 2.59523052,55.2913043 L4.72425196,57.24 C5.05673873,57.5421219 5.48859544,57.7094163 5.93639555,57.7095652 L8.63263804,57.7095652 C8.78595604,57.7086663 8.92707652,57.7936279 8.99888832,57.9300663 C9.07070012,58.0665046 9.06131254,58.231828 8.97452469,58.3591304 L8.04210654,59.7678261 C7.75572837,60.1945988 7.2792059,60.4521345 6.76780174,60.4565217 L4.29689364,60.4565217 C3.80248985,60.4437502 3.35108249,60.1703617 3.1080605,59.7365217 C2.33104537,58.3356522 0.660462856,55.26 1.20437344,54.2582609 C1.8803766,52.8886957 5.25262224,51.3 8.0809573,43.7243478 Z" id="Shape" fill="url(#linearGradient-8)" fill-rule="nonzero"></path>
                        <path d="M2.00469902,64.5730435 L3.23238292,64.2521739 C3.32555876,64.2286511 3.42426122,64.2456933 3.50433821,64.2991304 L4.07155925,64.6747826 C4.20643301,64.7611418 4.3746701,64.7757494 4.52222803,64.713913 L5.49349693,64.3069565 C5.63095411,64.2532194 5.78339807,64.2532194 5.92085525,64.3069565 L16.1386041,68.0086957 L16.1386041,68.0086957 C15.605161,68.4440611 14.9276128,68.6594168 14.2426872,68.6113043 L8.39176335,68.2043478 C8.39176335,68.2043478 10.7228087,67.8521739 10.6451072,66.7565217 C10.5674057,65.6608696 7.4438049,65.1913043 6.81442264,65.2617391 C6.18504039,65.3321739 4.82526393,65.6608696 4.42898621,65.7547826 C4.35963066,65.7675653 4.28854768,65.7675653 4.21919213,65.7547826 L2.54083946,65.5278261 C3.0056996,65.8817664 3.3328428,66.3884737 3.46548746,66.96 L3.58203973,67.7973913 C3.58203973,67.7973913 5.07390877,68.0243478 7.61474822,68.3530435 C5.92944708,68.4884871 4.2372421,68.514628 2.54860961,68.4313043 C2.44453934,67.8164494 2.574983,67.1846943 2.91380672,66.6626087 C2.91380672,66.6626087 1.55403025,65.8408696 1.67835267,64.9565217 C1.6957161,64.7720658 1.82637162,64.6185371 2.00469902,64.5730435 L2.00469902,64.5730435 Z" id="Shape" fill="url(#linearGradient-9)" fill-rule="nonzero"></path>
                        <path d="M13.1704064,70.9434783 C13.1704064,70.9434783 5.16715058,73.44 2.60300067,70.2 C3.13666544,71.154265 3.78662259,72.0376293 4.53776833,72.8295652 L6.65901962,75.0286957 C8.99662747,73.9579439 11.1855597,72.5846168 13.1704064,70.9434783 L13.1704064,70.9434783 Z" id="Shape" fill="url(#linearGradient-10)" fill-rule="nonzero"></path>
                        <path d="M39.9774282,52.8808696 C38.0172627,53.9999181 35.8526015,54.7080315 33.6136743,54.9626087 C32.490773,55.1440257 31.3553736,55.2356162 30.2181182,55.2365217 C29.6275867,55.2365217 29.0396453,55.2130435 28.4542939,55.166087 C26.8663725,55.1427708 25.4622784,56.2002082 25.0354273,57.7408696 L25.0354273,57.7408696 C24.3923009,59.5793547 23.4264038,61.2864818 22.1837818,62.7808696 C20.7724651,64.5001508 18.9633923,65.8438794 16.9156193,66.693913 C16.9156193,66.693913 21.9739877,65.9582609 25.1364393,60.2295652 C26.150214,58.225176 28.1868307,56.9551936 30.4201421,56.9347826 C32.9687517,56.973913 36.1933645,57.2086957 39.4102071,55.4634783 C40.9642374,54.6573913 39.9463476,53.0765217 39.9774282,52.8808696 Z" id="Shape" fill="url(#linearGradient-11)" fill-rule="nonzero"></path>
                        <path d="M56.6444026,21.5686957 C54.0075944,18.384705 50.7830994,15.7456105 47.1492778,13.7973913 C43.5041673,11.8427349 39.5115801,10.6326128 35.4008091,10.2365217 C34.3647889,10.1321739 33.3287688,10.08 32.2927486,10.08 C27.5324628,10.0639321 22.8304078,11.1341929 18.5395809,13.2104348 C20.0869482,10.9846678 22.0061745,9.04632948 24.2117913,7.48173913 C27.7512799,4.97503022 31.9193521,3.52143241 36.2399854,3.28695652 L36.2399854,3.28695652 C45.5578371,3.86123051 53.5217339,10.2494309 56.1626532,19.2678261 C56.1595134,19.2833185 56.1595134,19.2992902 56.1626532,19.3147826 C56.3646772,20.0504348 56.5200802,20.8017391 56.6444026,21.5686957 Z" id="Shape" fill="url(#linearGradient-12)" fill-rule="nonzero"></path>
                        <path d="M40.2960044,1.27565217 L41.1274106,1.27565217 C59.8301646,1.28347826 76.240724,20.073913 76.240724,41.4782609 C76.2406994,43.9387539 76.0117744,46.3938321 75.5569507,48.8113043 C73.5674057,59.3166708 67.3668075,68.5316482 58.4159971,74.2852174 C59.2883738,71.839504 59.8598552,69.2953201 60.1176602,66.7095652 C64.6068401,65.3918073 68.2715036,62.1137679 70.1009032,57.7795602 C71.9303028,53.4453524 71.7311577,48.5128966 69.558394,44.3426087 C69.533796,44.2211153 69.4743623,44.1095552 69.3874506,44.0217391 C68.1349108,41.7561573 66.346735,39.8368309 64.1814493,38.433913 C62.5266529,37.3519221 60.6797001,36.6025077 58.7423434,36.2269565 C57.8916837,36.0612062 57.0288157,35.9669687 56.1626532,35.9452174 C57.1950588,32.8910754 57.7201193,29.6863034 57.7166835,26.46 C57.7166835,26.2956522 57.7166835,26.1313043 57.7166835,25.9669565 C57.7166835,25.8026087 57.7166835,25.7086957 57.7166835,25.5834783 C57.7187912,24.2322249 57.6017796,22.8834513 57.3670267,21.5530435 C57.2248643,20.7372023 57.0380965,19.9298872 56.8075758,19.1347826 L56.8075758,19.0878261 C54.0797308,9.82080218 45.895621,3.2563905 36.3176869,2.65304348 L36.2322153,2.65304348 C28.9992994,3.08311847 22.3511911,6.79670268 18.1588435,12.7486957 C17.2137411,13.2232186 16.293095,13.7456263 15.4004398,14.313913 C21.10064,6.14943712 30.3863435,1.28634498 40.2960044,1.27565217 L40.2960044,1.27565217 Z M40.2960044,0.64173913 C29.0703451,0.650195679 18.7133883,6.72802445 13.1704064,16.56 C13.8541797,16.0382609 14.5612634,15.5426087 15.2916577,15.0730435 C16.334059,14.3997068 17.4161022,13.7907596 18.5318107,13.2495652 C20.0791781,11.0237982 21.9984043,9.08545991 24.2040211,7.52086957 C27.7372759,5.00200843 31.9026852,3.5348405 36.2244451,3.28695652 L36.2244451,3.28695652 C45.5443544,3.86030383 53.5109965,10.2482151 56.1548831,19.2678261 C56.1517433,19.2833185 56.1517433,19.2992902 56.1548831,19.3147826 C56.379101,20.0866725 56.5606828,20.8704825 56.6987937,21.6626087 C56.9276826,22.954172 57.0420954,24.2636762 57.0406803,25.5756522 C57.0406803,25.7008696 57.0406803,25.833913 57.0406803,25.9591304 C57.0406803,26.0843478 57.0406803,26.2878261 57.0406803,26.4521739 C57.0450564,29.910565 56.4290936,33.3413074 55.2224649,36.5791304 C55.4011784,36.5791304 55.5721217,36.5791304 55.7508352,36.5791304 C56.7027079,36.5792397 57.6523925,36.6709609 58.5869404,36.8530435 C60.4539637,37.2108044 62.2348419,37.9282837 63.8317925,38.966087 C65.9477716,40.3355342 67.6873632,42.2195284 68.890161,44.4443478 L68.890161,44.4443478 L68.890161,44.4443478 C68.890161,44.4443478 68.890161,44.4443478 68.890161,44.4443478 C71.0872113,48.5134075 71.3026437,53.3744961 69.4742768,57.6245309 C67.6459099,61.8745657 63.9772228,65.0405601 59.5271287,66.2086957 C59.2440583,69.5144453 58.4387772,72.7534737 57.1416923,75.8034783 C69.3604346,68.7599878 76.8907953,55.6580088 76.8701063,41.4782609 C76.8701063,20.3478261 60.6693409,0.633913043 41.1274106,0.633913043 L40.2960044,0.633913043 L40.2960044,0.64173913 Z" id="Shape" fill="#006A9A" fill-rule="nonzero"></path>
                    </g>
                </g>
            </g>
        </g>
    </g>
</svg>